<svg width="48" height="48" viewBox="0 0 48 48" fill="none" xmlns="http://www.w3.org/2000/svg">
<path d="M24.0004 18.1C24.2671 18.1 24.5171 18.1416 24.7504 18.225C24.9837 18.3083 25.2004 18.45 25.4004 18.65L34.6004 27.85C34.9671 28.2166 35.1504 28.6833 35.1504 29.25C35.1504 29.8166 34.9671 30.2833 34.6004 30.65C34.2337 31.0166 33.7671 31.2 33.2004 31.2C32.6337 31.2 32.1671 31.0166 31.8004 30.65L24.0004 22.85L16.2004 30.65C15.8337 31.0166 15.3671 31.2 14.8004 31.2C14.2337 31.2 13.7671 31.0166 13.4004 30.65C13.0337 30.2833 12.8504 29.8166 12.8504 29.25C12.8504 28.6833 13.0337 28.2166 13.4004 27.85L22.6004 18.65C22.8004 18.45 23.0171 18.3083 23.2504 18.225C23.4837 18.1416 23.7337 18.1 24.0004 18.1Z" fill="#484746"/>
</svg>
