<svg width="40" height="36" viewBox="0 0 40 36" fill="none" xmlns="http://www.w3.org/2000/svg">
<path d="M20 29C22.5 29 24.625 28.125 26.375 26.375C28.125 24.625 29 22.5 29 20C29 17.5 28.125 15.375 26.375 13.625C24.625 11.875 22.5 11 20 11C17.5 11 15.375 11.875 13.625 13.625C11.875 15.375 11 17.5 11 20C11 22.5 11.875 24.625 13.625 26.375C15.375 28.125 17.5 29 20 29ZM20 25C18.6 25 17.4167 24.5167 16.45 23.55C15.4833 22.5833 15 21.4 15 20C15 18.6 15.4833 17.4167 16.45 16.45C17.4167 15.4833 18.6 15 20 15C21.4 15 22.5833 15.4833 23.55 16.45C24.5167 17.4167 25 18.6 25 20C25 21.4 24.5167 22.5833 23.55 23.55C22.5833 24.5167 21.4 25 20 25ZM4 36C2.9 36 1.95833 35.6083 1.175 34.825C0.391667 34.0417 0 33.1 0 32V8C0 6.9 0.391667 5.95833 1.175 5.175C1.95833 4.39167 2.9 4 4 4H10.3L12.8 1.3C13.1667 0.9 13.6083 0.583333 14.125 0.35C14.6417 0.116667 15.1833 0 15.75 0H24.25C24.8167 0 25.3583 0.116667 25.875 0.35C26.3917 0.583333 26.8333 0.9 27.2 1.3L29.7 4H36C37.1 4 38.0417 4.39167 38.825 5.175C39.6083 5.95833 40 6.9 40 8V32C40 33.1 39.6083 34.0417 38.825 34.825C38.0417 35.6083 37.1 36 36 36H4Z" fill="#1A1918"/>
</svg>
