<svg width="165" height="164" viewBox="0 0 165 164" fill="none" xmlns="http://www.w3.org/2000/svg">
<circle cx="82" cy="82" r="82" fill="white"/>
<path d="M82 0C36.7078 0 0 36.7078 0 82C0 127.292 36.7078 164 82 164C127.292 164 164 127.292 164 82C164 36.7078 127.292 0 82 0ZM82 41C94.7388 41 105.062 51.3269 105.062 64.0625C105.062 76.7981 94.7484 87.125 82 87.125C69.2644 87.125 58.9375 76.7981 58.9375 64.0625C58.9375 51.3269 69.2516 41 82 41ZM82 143.5C65.0459 143.5 49.6805 136.604 38.5336 125.47C43.7227 112.077 56.5352 102.5 71.75 102.5H92.25C107.478 102.5 120.29 112.071 125.466 125.47C114.32 136.613 98.9445 143.5 82 143.5Z" fill="#F2F2F2"/>
</svg>
