<svg width="52" height="15" viewBox="0 0 52 15" fill="none" xmlns="http://www.w3.org/2000/svg" role="img" aria-label="WINE 로고">
  <!-- 간단 워드마크(배경이 어두울 때 잘 보이도록 화이트 유지) -->
  <path d="M16.3044 10.564C16.3044 11.1761 16.1872 11.7538 15.9529 12.2971C15.7255 12.8336 15.4084 13.3047 15.0018 13.7105C14.602 14.1094 14.1299 14.4257 13.5854 14.6596C13.0479 14.8865 12.4724 15 11.859 15C11.3076 15 10.7769 14.9037 10.2669 14.7111C9.76376 14.5186 9.30888 14.2366 8.90224 13.8652C8.4956 14.2366 8.03728 14.5186 7.52726 14.7111C7.01724 14.9037 6.48655 15 5.93517 15C5.32177 15 4.74284 14.8865 4.19836 14.6596C3.66077 14.4257 3.18866 14.1094 2.78202 13.7105C2.38228 13.3047 2.06524 12.8336 1.83091 12.2971C1.60347 11.7538 1.48975 11.1761 1.48975 10.564V0H4.45681V10.564C4.45681 10.7703 4.49472 10.9663 4.57053 11.152C4.64635 11.3308 4.74973 11.489 4.88068 11.6265C5.01852 11.7572 5.17704 11.8604 5.35624 11.936C5.53543 12.0117 5.72841 12.0495 5.93517 12.0495C6.14194 12.0495 6.33492 12.0117 6.51411 11.936C6.69331 11.8604 6.84838 11.7572 6.97933 11.6265C7.11718 11.489 7.224 11.3308 7.29982 11.152C7.37563 10.9663 7.41354 10.7703 7.41354 10.564V0H10.3806V10.564C10.3806 10.7703 10.4185 10.9663 10.4943 11.152C10.5701 11.3308 10.6735 11.489 10.8045 11.6265C10.9423 11.7572 11.1008 11.8604 11.28 11.936C11.4592 12.0117 11.6522 12.0495 11.859 12.0495C12.0657 12.0495 12.2587 12.0117 12.4379 11.936C12.6171 11.8604 12.7722 11.7572 12.9031 11.6265C13.041 11.489 13.1478 11.3308 13.2236 11.152C13.3063 10.9663 13.3477 10.7703 13.3477 10.564V0H16.3044V10.564Z" fill="#FFFFFF"/>
  <path d="M22.4897 0H19.3042V15H22.4897V0Z" fill="#FFFFFF"/>
  <path d="M37.3477 14.8967H34.1738L28.4568 5.15805V14.8967H25.4897V0.103027H28.6636L34.3806 9.852V0.103027H37.3477V14.8967Z" fill="#FFFFFF"/>
  <path d="M50.5101 14.8967H40.3477V0.103027H50.5101V3.06383H43.3147V6.02462H48.184V8.98542H43.3147V11.9359H50.5101V14.8967Z" fill="#FFFFFF"/>
</svg>
