<svg width="17" height="17" viewBox="0 0 17 17" fill="none" xmlns="http://www.w3.org/2000/svg">
<path d="M8.33333 13.9627L4.29395 16.5106C4.1155 16.6295 3.92895 16.6805 3.73428 16.6635C3.53961 16.6465 3.36927 16.5786 3.22327 16.4596C3.07727 16.3407 2.96371 16.1921 2.8826 16.0138C2.80149 15.8354 2.78526 15.6358 2.83393 15.415L3.90461 10.5994L0.327568 7.36353C0.165344 7.21065 0.0639538 7.03654 0.0233977 6.8412C-0.0171583 6.64586 -0.00499151 6.45476 0.0598982 6.26792C0.124788 6.08107 0.222122 5.92819 0.351902 5.80929C0.481681 5.69038 0.660128 5.61395 0.887242 5.57997L5.60797 5.14682L7.43299 0.611504C7.5141 0.407669 7.63982 0.254793 7.81016 0.152876C7.9805 0.0509587 8.15489 0 8.33333 0C8.51178 0 8.68617 0.0509587 8.85651 0.152876C9.02684 0.254793 9.15257 0.407669 9.23368 0.611504L11.0587 5.14682L15.7794 5.57997C16.0065 5.61395 16.185 5.69038 16.3148 5.80929C16.4445 5.92819 16.5419 6.08107 16.6068 6.26792C16.6717 6.45476 16.6838 6.64586 16.6433 6.8412C16.6027 7.03654 16.5013 7.21065 16.3391 7.36353L12.7621 10.5994L13.8327 15.415C13.8814 15.6358 13.8652 15.8354 13.7841 16.0138C13.703 16.1921 13.5894 16.3407 13.4434 16.4596C13.2974 16.5786 13.1271 16.6465 12.9324 16.6635C12.7377 16.6805 12.5512 16.6295 12.3727 16.5106L8.33333 13.9627Z" fill="#31302F"/>
</svg>
