<svg width="20" height="20" viewBox="0 0 20 20" fill="none" xmlns="http://www.w3.org/2000/svg">
<path d="M9.16699 14.9993C10.7781 14.9993 12.1531 14.4334 13.292 13.3014C14.4309 12.1695 15.0003 10.791 15.0003 9.16602C15.0003 7.5549 14.4309 6.1799 13.292 5.04102C12.1531 3.90213 10.7781 3.33268 9.16699 3.33268C7.54199 3.33268 6.16352 3.90213 5.03158 5.04102C3.89963 6.1799 3.33366 7.5549 3.33366 9.16602C3.33366 10.791 3.89963 12.1695 5.03158 13.3014C6.16352 14.4334 7.54199 14.9993 9.16699 14.9993ZM9.16699 16.666C8.12533 16.666 7.14963 16.4681 6.23991 16.0723C5.33019 15.6764 4.53852 15.1417 3.86491 14.4681C3.1913 13.7945 2.65658 13.0028 2.26074 12.0931C1.86491 11.1834 1.66699 10.2077 1.66699 9.16602C1.66699 8.13824 1.86491 7.16949 2.26074 6.25977C2.65658 5.35004 3.1913 4.5549 3.86491 3.87435C4.53852 3.19379 5.33019 2.6556 6.23991 2.25977C7.14963 1.86393 8.12533 1.66602 9.16699 1.66602C10.1948 1.66602 11.1635 1.86393 12.0732 2.25977C12.983 2.6556 13.7781 3.19379 14.4587 3.87435C15.1392 4.5549 15.6774 5.35004 16.0732 6.25977C16.4691 7.16949 16.667 8.13824 16.667 9.16602C16.667 10.0549 16.5212 10.8952 16.2295 11.6868C15.9378 12.4785 15.535 13.2007 15.0212 13.8535L17.7503 16.5827C17.917 16.7493 17.9969 16.9438 17.9899 17.166C17.983 17.3882 17.8962 17.5827 17.7295 17.7493C17.5628 17.9021 17.3684 17.9785 17.1462 17.9785C16.9239 17.9785 16.7295 17.9021 16.5628 17.7493L13.8337 15.041C13.1809 15.5549 12.4587 15.9542 11.667 16.2389C10.8753 16.5237 10.042 16.666 9.16699 16.666Z" fill="#31302F"/>
</svg>
