<svg width="401" height="228" viewBox="0 0 401 228" fill="none" xmlns="http://www.w3.org/2000/svg">
<rect x="132.5" width="136" height="136" rx="68" fill="#F2F2F2"/>
<path d="M189.833 32.3197C189.651 27.7797 193.283 24 197.826 24H203.174C207.717 24 211.349 27.7797 211.167 32.3197L209.167 82.3197C208.996 86.6102 205.467 90 201.174 90H199.826C195.533 90 192.004 86.6102 191.833 82.3197L189.833 32.3197Z" fill="white"/>
<rect x="191.5" y="98" width="18" height="14" rx="7" fill="white"/>
<path d="M56.4479 166.544C57.5679 166.544 58.5519 166.864 59.3999 167.504C60.2639 168.144 60.9439 169.048 61.4399 170.216C61.9359 171.384 62.1839 172.768 62.1839 174.368C62.1839 175.968 61.9359 177.36 61.4399 178.544C60.9439 179.712 60.2639 180.616 59.3999 181.256C58.5519 181.896 57.5679 182.216 56.4479 182.216C55.3439 182.216 54.3599 181.896 53.4959 181.256C52.6319 180.616 51.9519 179.712 51.4559 178.544C50.9599 177.36 50.7119 175.968 50.7119 174.368C50.7119 172.768 50.9599 171.384 51.4559 170.216C51.9519 169.048 52.6319 168.144 53.4959 167.504C54.3599 166.864 55.3439 166.544 56.4479 166.544ZM56.4479 169.136C55.8559 169.136 55.3359 169.336 54.8879 169.736C54.4399 170.136 54.0879 170.728 53.8319 171.512C53.5919 172.296 53.4719 173.248 53.4719 174.368C53.4719 175.488 53.5919 176.44 53.8319 177.224C54.0879 178.008 54.4399 178.608 54.8879 179.024C55.3519 179.44 55.8719 179.648 56.4479 179.648C57.0399 179.648 57.5599 179.44 58.0079 179.024C58.4559 178.608 58.8079 178.008 59.0639 177.224C59.3199 176.44 59.4479 175.488 59.4479 174.368C59.4479 173.248 59.3199 172.296 59.0639 171.512C58.8079 170.728 58.4559 170.136 58.0079 169.736C57.5599 169.336 57.0399 169.136 56.4479 169.136ZM64.8959 164.984H67.7519V187.064H64.8959V164.984ZM67.1279 173.432H71.0639V175.784H67.1279V173.432ZM77.638 167.24H80.014V168.728C80.014 170.12 79.774 171.424 79.294 172.64C78.83 173.856 78.134 174.92 77.206 175.832C76.278 176.728 75.126 177.408 73.75 177.872L72.286 175.664C73.486 175.264 74.478 174.704 75.262 173.984C76.062 173.264 76.654 172.448 77.038 171.536C77.438 170.624 77.638 169.688 77.638 168.728V167.24ZM78.238 167.24H80.566V168.728C80.566 169.416 80.67 170.088 80.878 170.744C81.102 171.4 81.438 172.016 81.886 172.592C82.334 173.168 82.886 173.688 83.542 174.152C84.198 174.616 84.966 174.984 85.846 175.256L84.406 177.488C83.062 177.056 81.934 176.408 81.022 175.544C80.11 174.664 79.414 173.64 78.934 172.472C78.47 171.304 78.238 170.056 78.238 168.728V167.24ZM87.55 164.96H90.43V178.304H87.55V164.96ZM75.454 179.336H90.43V187.064H87.55V181.616H75.454V179.336ZM73.054 166.328H85.078V168.608H73.054V166.328ZM104.25 166.544C105.37 166.544 106.354 166.864 107.202 167.504C108.066 168.144 108.746 169.048 109.242 170.216C109.738 171.384 109.986 172.768 109.986 174.368C109.986 175.968 109.738 177.36 109.242 178.544C108.746 179.712 108.066 180.616 107.202 181.256C106.354 181.896 105.37 182.216 104.25 182.216C103.146 182.216 102.162 181.896 101.298 181.256C100.434 180.616 99.7541 179.712 99.2581 178.544C98.7621 177.36 98.5141 175.968 98.5141 174.368C98.5141 172.768 98.7621 171.384 99.2581 170.216C99.7541 169.048 100.434 168.144 101.298 167.504C102.162 166.864 103.146 166.544 104.25 166.544ZM104.25 169.136C103.658 169.136 103.138 169.336 102.69 169.736C102.242 170.136 101.89 170.728 101.634 171.512C101.394 172.296 101.274 173.248 101.274 174.368C101.274 175.488 101.394 176.44 101.634 177.224C101.89 178.008 102.242 178.608 102.69 179.024C103.154 179.44 103.674 179.648 104.25 179.648C104.842 179.648 105.362 179.44 105.81 179.024C106.258 178.608 106.61 178.008 106.866 177.224C107.122 176.44 107.25 175.488 107.25 174.368C107.25 173.248 107.122 172.296 106.866 171.512C106.61 170.728 106.258 170.136 105.81 169.736C105.362 169.336 104.842 169.136 104.25 169.136ZM112.698 164.984H115.554V187.064H112.698V164.984ZM114.93 173.432H118.866V175.784H114.93V173.432ZM119.944 177.44H139.936V179.744H119.944V177.44ZM128.44 178.904H131.296V187.04H128.44V178.904ZM122.32 166.088H137.512V174.92H122.32V166.088ZM134.704 168.344H125.128V172.664H134.704V168.344ZM143.942 174.944H159.35V177.224H143.942V174.944ZM141.566 182.144H161.558V184.496H141.566V182.144ZM150.086 175.976H152.942V182.936H150.086V175.976ZM143.942 166.544H159.182V168.848H146.798V175.952H143.942V166.544ZM167.77 182.096H187.762V184.424H167.77V182.096ZM176.29 176.984H179.146V182.672H176.29V176.984ZM169.93 166.664H185.506V177.368H169.93V166.664ZM182.698 168.92H172.714V175.112H182.698V168.92ZM189.369 182.144H209.361V184.496H189.369V182.144ZM191.673 166.496H207.033V173.696H194.529V177.584H191.721V171.44H204.225V168.8H191.673V166.496ZM191.721 176.456H207.537V178.736H191.721V176.456ZM213.487 171.104H228.703V173.384H213.487V171.104ZM210.943 175.856H230.935V178.136H210.943V175.856ZM213.487 165.752H216.319V172.256H213.487V165.752ZM213.295 184.256H228.823V186.56H213.295V184.256ZM213.295 180.032H216.151V184.88H213.295V180.032ZM242.283 176.144H245.139V181.376H242.283V176.144ZM243.675 166.304C244.811 166.304 245.827 166.536 246.723 167C247.619 167.448 248.323 168.08 248.835 168.896C249.363 169.696 249.627 170.616 249.627 171.656C249.627 172.696 249.363 173.624 248.835 174.44C248.323 175.256 247.619 175.896 246.723 176.36C245.827 176.808 244.811 177.032 243.675 177.032C242.539 177.032 241.523 176.808 240.627 176.36C239.731 175.896 239.019 175.256 238.491 174.44C237.979 173.624 237.723 172.696 237.723 171.656C237.723 170.616 237.979 169.696 238.491 168.896C239.019 168.08 239.731 167.448 240.627 167C241.523 166.536 242.539 166.304 243.675 166.304ZM243.675 168.728C243.067 168.728 242.523 168.848 242.043 169.088C241.563 169.312 241.187 169.648 240.915 170.096C240.643 170.528 240.507 171.048 240.507 171.656C240.507 172.264 240.643 172.792 240.915 173.24C241.187 173.688 241.563 174.032 242.043 174.272C242.523 174.496 243.067 174.608 243.675 174.608C244.299 174.608 244.843 174.496 245.307 174.272C245.787 174.032 246.163 173.688 246.435 173.24C246.723 172.792 246.867 172.264 246.867 171.656C246.867 171.048 246.723 170.528 246.435 170.096C246.163 169.648 245.787 169.312 245.307 169.088C244.843 168.848 244.299 168.728 243.675 168.728ZM251.595 164.96H254.451V187.04H251.595V164.96ZM253.587 173.744H257.523V176.12H253.587V173.744ZM237.267 182.552L236.907 180.248C238.203 180.232 239.611 180.224 241.131 180.224C242.667 180.208 244.227 180.16 245.811 180.08C247.395 179.984 248.923 179.84 250.395 179.648L250.611 181.712C249.075 182 247.515 182.208 245.931 182.336C244.363 182.448 242.835 182.512 241.347 182.528C239.875 182.544 238.515 182.552 237.267 182.552ZM274.153 164.984H277.033V180.92H274.153V164.984ZM262.465 184.352H277.609V186.632H262.465V184.352ZM262.465 179.312H265.321V185.264H262.465V179.312ZM265.057 166.424C266.177 166.424 267.185 166.664 268.081 167.144C268.977 167.608 269.681 168.256 270.193 169.088C270.721 169.92 270.985 170.88 270.985 171.968C270.985 173.04 270.721 174 270.193 174.848C269.681 175.68 268.977 176.336 268.081 176.816C267.185 177.296 266.177 177.536 265.057 177.536C263.937 177.536 262.929 177.296 262.033 176.816C261.137 176.336 260.425 175.68 259.897 174.848C259.385 174 259.129 173.04 259.129 171.968C259.129 170.88 259.385 169.92 259.897 169.088C260.425 168.256 261.137 167.608 262.033 167.144C262.929 166.664 263.937 166.424 265.057 166.424ZM265.057 168.896C264.465 168.896 263.929 169.024 263.449 169.28C262.969 169.52 262.593 169.872 262.321 170.336C262.049 170.784 261.913 171.328 261.913 171.968C261.913 172.608 262.049 173.16 262.321 173.624C262.593 174.072 262.969 174.424 263.449 174.68C263.929 174.92 264.465 175.04 265.057 175.04C265.649 175.04 266.185 174.92 266.665 174.68C267.145 174.424 267.521 174.072 267.793 173.624C268.065 173.16 268.201 172.608 268.201 171.968C268.201 171.328 268.065 170.784 267.793 170.336C267.521 169.872 267.145 169.52 266.665 169.28C266.185 169.024 265.649 168.896 265.057 168.896ZM295.727 164.96H298.607V187.088H295.727V164.96ZM286.775 166.544C287.879 166.544 288.863 166.864 289.727 167.504C290.607 168.144 291.287 169.048 291.767 170.216C292.263 171.384 292.511 172.768 292.511 174.368C292.511 175.968 292.263 177.36 291.767 178.544C291.287 179.712 290.607 180.616 289.727 181.256C288.863 181.896 287.879 182.216 286.775 182.216C285.671 182.216 284.679 181.896 283.799 181.256C282.935 180.616 282.255 179.712 281.759 178.544C281.279 177.36 281.039 175.968 281.039 174.368C281.039 172.768 281.279 171.384 281.759 170.216C282.255 169.048 282.935 168.144 283.799 167.504C284.679 166.864 285.671 166.544 286.775 166.544ZM286.775 169.136C286.183 169.136 285.663 169.336 285.215 169.736C284.767 170.136 284.415 170.728 284.159 171.512C283.903 172.296 283.775 173.248 283.775 174.368C283.775 175.488 283.903 176.44 284.159 177.224C284.415 178.008 284.767 178.608 285.215 179.024C285.663 179.44 286.183 179.648 286.775 179.648C287.367 179.648 287.887 179.44 288.335 179.024C288.783 178.608 289.135 178.008 289.391 177.224C289.647 176.44 289.775 175.488 289.775 174.368C289.775 173.248 289.647 172.296 289.391 171.512C289.135 170.728 288.783 170.136 288.335 169.736C287.887 169.336 287.367 169.136 286.775 169.136ZM302.853 167.144H305.661V180.008H302.853V167.144ZM302.853 179.264H304.365C305.677 179.264 306.933 179.224 308.133 179.144C309.333 179.064 310.581 178.888 311.877 178.616L312.261 181.016C310.901 181.304 309.589 181.488 308.325 181.568C307.077 181.648 305.757 181.688 304.365 181.688H302.853V179.264ZM318.165 164.96H320.901V187.04H318.165V164.96ZM308.997 172.064H314.157V174.368H308.997V172.064ZM313.485 165.392H316.149V186.032H313.485V165.392ZM328.075 176.216H330.931V182.528H328.075V176.216ZM336.139 176.216H338.995V182.528H336.139V176.216ZM323.563 182.096H343.555V184.424H323.563V182.096ZM333.523 166.136C335.107 166.136 336.515 166.384 337.747 166.88C338.979 167.36 339.947 168.04 340.651 168.92C341.355 169.784 341.707 170.816 341.707 172.016C341.707 173.184 341.355 174.208 340.651 175.088C339.947 175.968 338.979 176.648 337.747 177.128C336.515 177.608 335.107 177.848 333.523 177.848C331.955 177.848 330.547 177.608 329.299 177.128C328.067 176.648 327.099 175.968 326.395 175.088C325.691 174.208 325.339 173.184 325.339 172.016C325.339 170.816 325.691 169.784 326.395 168.92C327.099 168.04 328.067 167.36 329.299 166.88C330.547 166.384 331.955 166.136 333.523 166.136ZM333.523 168.368C332.451 168.368 331.507 168.512 330.691 168.8C329.891 169.088 329.267 169.504 328.819 170.048C328.371 170.592 328.147 171.248 328.147 172.016C328.147 172.752 328.371 173.392 328.819 173.936C329.267 174.48 329.891 174.904 330.691 175.208C331.507 175.496 332.451 175.64 333.523 175.64C334.595 175.64 335.531 175.496 336.331 175.208C337.147 174.904 337.779 174.48 338.227 173.936C338.675 173.392 338.899 172.752 338.899 172.016C338.899 171.248 338.675 170.592 338.227 170.048C337.779 169.504 337.147 169.088 336.331 168.8C335.531 168.512 334.595 168.368 333.523 168.368ZM346.484 179.352L346.25 168.09H349.332L349.098 179.352H346.484ZM347.797 185.164C347.297 185.164 346.875 185.004 346.531 184.684C346.195 184.355 346.027 183.945 346.027 183.453C346.027 182.969 346.195 182.566 346.531 182.246C346.875 181.918 347.297 181.754 347.797 181.754C348.297 181.754 348.715 181.918 349.051 182.246C349.387 182.566 349.555 182.969 349.555 183.453C349.555 183.945 349.387 184.355 349.051 184.684C348.715 185.004 348.297 185.164 347.797 185.164Z" fill="#31302F"/>
<path d="M5.28887 209.454H6.51287V212.082C6.51287 212.946 6.39287 213.798 6.15287 214.638C5.91287 215.466 5.57687 216.252 5.14487 216.996C4.72487 217.728 4.23287 218.376 3.66887 218.94C3.10487 219.504 2.49887 219.948 1.85087 220.272L0.986868 219.084C1.57487 218.796 2.12687 218.406 2.64287 217.914C3.17087 217.422 3.63287 216.858 4.02887 216.222C4.42487 215.586 4.73087 214.914 4.94687 214.206C5.17487 213.498 5.28887 212.79 5.28887 212.082V209.454ZM5.59487 209.454H6.80087V212.082C6.80087 212.766 6.90887 213.45 7.12487 214.134C7.35287 214.806 7.66487 215.442 8.06087 216.042C8.46887 216.63 8.93087 217.152 9.44687 217.608C9.97487 218.064 10.5389 218.424 11.1389 218.688L10.3109 219.876C9.65087 219.564 9.03287 219.144 8.45687 218.616C7.88087 218.088 7.37687 217.482 6.94487 216.798C6.52487 216.102 6.19487 215.358 5.95487 214.566C5.71487 213.762 5.59487 212.934 5.59487 212.082V209.454ZM1.50887 208.788H10.5989V210.03H1.50887V208.788ZM12.8129 207.114H14.3069V223.404H12.8129V207.114ZM19.0575 207.978H29.5335V209.202H19.0575V207.978ZM17.1855 213.972H31.9455V215.196H17.1855V213.972ZM28.5615 207.978H30.0375V209.184C30.0375 209.868 30.0135 210.624 29.9655 211.452C29.9175 212.28 29.7615 213.264 29.4975 214.404L28.0215 214.314C28.2855 213.21 28.4415 212.25 28.4895 211.434C28.5375 210.606 28.5615 209.856 28.5615 209.184V207.978ZM19.0035 217.41H30.0915V223.188H19.0035V217.41ZM28.6155 218.598H20.4615V221.964H28.6155V218.598ZM38.0338 214.854H52.7578V216.096H38.0338V214.854ZM39.8878 212.1H51.0298V213.324H39.8878V212.1ZM39.8878 207.762H50.9218V208.986H41.3638V212.676H39.8878V207.762ZM45.3778 217.5C47.1178 217.5 48.4798 217.758 49.4638 218.274C50.4478 218.79 50.9398 219.51 50.9398 220.434C50.9398 221.37 50.4478 222.09 49.4638 222.594C48.4798 223.11 47.1178 223.368 45.3778 223.368C43.6378 223.368 42.2698 223.11 41.2738 222.594C40.2898 222.09 39.7978 221.37 39.7978 220.434C39.7978 219.51 40.2898 218.79 41.2738 218.274C42.2698 217.758 43.6378 217.5 45.3778 217.5ZM45.3598 218.67C44.5198 218.67 43.7938 218.742 43.1818 218.886C42.5818 219.018 42.1198 219.216 41.7958 219.48C41.4718 219.744 41.3098 220.062 41.3098 220.434C41.3098 220.818 41.4718 221.142 41.7958 221.406C42.1198 221.658 42.5818 221.856 43.1818 222C43.7938 222.132 44.5198 222.198 45.3598 222.198C46.2238 222.198 46.9558 222.132 47.5558 222C48.1678 221.856 48.6358 221.658 48.9598 221.406C49.2838 221.142 49.4458 220.818 49.4458 220.434C49.4458 220.062 49.2838 219.744 48.9598 219.48C48.6358 219.216 48.1678 219.018 47.5558 218.886C46.9558 218.742 46.2238 218.67 45.3598 218.67ZM54.2144 216.078H68.9744V217.302H54.2144V216.078ZM56.0864 207.528H67.0844V211.488H57.5984V213.666H56.1224V210.372H65.6084V208.716H56.0864V207.528ZM56.1224 213.18H67.4264V214.368H56.1224V213.18ZM60.8564 213.792H62.3324V216.672H60.8564V213.792ZM55.8704 218.544H67.1744V223.242H65.6804V219.75H55.8704V218.544ZM70.395 209.904H78.477V211.128H70.395V209.904ZM74.445 212.208C75.129 212.208 75.729 212.364 76.245 212.676C76.773 212.988 77.187 213.426 77.487 213.99C77.787 214.542 77.937 215.184 77.937 215.916C77.937 216.648 77.787 217.296 77.487 217.86C77.187 218.412 76.773 218.85 76.245 219.174C75.729 219.486 75.129 219.642 74.445 219.642C73.773 219.642 73.173 219.486 72.645 219.174C72.117 218.85 71.703 218.412 71.403 217.86C71.103 217.296 70.953 216.648 70.953 215.916C70.953 215.184 71.103 214.542 71.403 213.99C71.703 213.438 72.117 213.006 72.645 212.694C73.173 212.37 73.773 212.208 74.445 212.208ZM74.445 213.468C74.037 213.468 73.665 213.576 73.329 213.792C73.005 213.996 72.747 214.284 72.555 214.656C72.375 215.016 72.285 215.436 72.285 215.916C72.285 216.396 72.375 216.822 72.555 217.194C72.747 217.566 73.005 217.854 73.329 218.058C73.665 218.262 74.037 218.364 74.445 218.364C74.865 218.364 75.237 218.262 75.561 218.058C75.885 217.854 76.137 217.566 76.317 217.194C76.509 216.822 76.605 216.396 76.605 215.916C76.605 215.436 76.509 215.016 76.317 214.656C76.137 214.284 75.885 213.996 75.561 213.792C75.237 213.576 74.865 213.468 74.445 213.468ZM82.779 207.114H84.201V223.404H82.779V207.114ZM80.169 213.972H83.247V215.196H80.169V213.972ZM79.287 207.492H80.691V222.612H79.287V207.492ZM73.707 207.6H75.183V210.642H73.707V207.6ZM94.7656 212.64H99.2836V213.864H94.7656V212.64ZM90.8236 208.518H92.0476V211.434C92.0476 212.334 91.9336 213.222 91.7056 214.098C91.4896 214.974 91.1776 215.79 90.7696 216.546C90.3616 217.302 89.8816 217.974 89.3296 218.562C88.7896 219.15 88.1956 219.618 87.5476 219.966L86.6116 218.76C87.2116 218.472 87.7636 218.07 88.2676 217.554C88.7836 217.038 89.2336 216.45 89.6176 215.79C90.0016 215.118 90.2956 214.416 90.4996 213.684C90.7156 212.94 90.8236 212.19 90.8236 211.434V208.518ZM91.1296 208.518H92.3356V211.434C92.3356 212.166 92.4376 212.892 92.6416 213.612C92.8576 214.332 93.1576 215.01 93.5416 215.646C93.9256 216.27 94.3696 216.828 94.8736 217.32C95.3896 217.812 95.9416 218.196 96.5296 218.472L95.6296 219.678C94.9816 219.342 94.3816 218.892 93.8296 218.328C93.2776 217.764 92.7976 217.116 92.3896 216.384C91.9936 215.652 91.6816 214.866 91.4536 214.026C91.2376 213.186 91.1296 212.322 91.1296 211.434V208.518ZM98.5456 207.114H100.022V223.422H98.5456V207.114ZM118.494 207.114H119.988V223.422H118.494V207.114ZM119.646 213.54H122.652V214.782H119.646V213.54ZM108.18 218.094H109.458C110.454 218.094 111.366 218.082 112.194 218.058C113.034 218.022 113.838 217.962 114.606 217.878C115.386 217.794 116.178 217.68 116.982 217.536L117.162 218.814C116.322 218.958 115.506 219.072 114.714 219.156C113.934 219.24 113.118 219.294 112.266 219.318C111.414 219.342 110.478 219.354 109.458 219.354H108.18V218.094ZM108.18 208.698H115.722V209.922H109.656V218.67H108.18V208.698ZM123.659 216.132H138.419V217.356H123.659V216.132ZM125.603 221.82H136.889V223.044H125.603V221.82ZM125.603 218.634H127.097V222.27H125.603V218.634ZM125.531 207.654H136.529V211.704H127.043V213.882H125.567V210.588H135.053V208.842H125.531V207.654ZM125.567 213.486H136.871V214.656H125.567V213.486ZM148.503 208.518H149.727V211.434C149.727 212.334 149.613 213.216 149.385 214.08C149.169 214.944 148.857 215.754 148.449 216.51C148.041 217.266 147.561 217.938 147.009 218.526C146.457 219.114 145.857 219.582 145.209 219.93L144.291 218.724C144.891 218.424 145.443 218.022 145.947 217.518C146.463 217.002 146.913 216.414 147.297 215.754C147.681 215.094 147.975 214.398 148.179 213.666C148.395 212.922 148.503 212.178 148.503 211.434V208.518ZM148.773 208.518H149.979V211.434C149.979 212.154 150.081 212.868 150.285 213.576C150.501 214.284 150.801 214.95 151.185 215.574C151.569 216.198 152.007 216.756 152.499 217.248C153.003 217.74 153.543 218.13 154.119 218.418L153.201 219.606C152.565 219.282 151.977 218.838 151.437 218.274C150.909 217.71 150.441 217.068 150.033 216.348C149.637 215.616 149.325 214.836 149.097 214.008C148.881 213.168 148.773 212.31 148.773 211.434V208.518ZM155.541 207.114H157.035V223.404H155.541V207.114ZM156.693 213.702H159.699V214.98H156.693V213.702ZM171.866 207.132H173.36V216.834H171.866V207.132ZM172.892 211.29H175.772V212.55H172.892V211.29ZM163.1 217.626H173.36V223.188H163.1V217.626ZM171.902 218.814H164.558V221.964H171.902V218.814ZM161.426 214.746H162.704C163.688 214.746 164.594 214.734 165.422 214.71C166.262 214.686 167.072 214.638 167.852 214.566C168.644 214.494 169.46 214.386 170.3 214.242L170.444 215.448C169.58 215.592 168.746 215.706 167.942 215.79C167.15 215.862 166.328 215.916 165.476 215.952C164.636 215.976 163.712 215.988 162.704 215.988H161.426V214.746ZM161.39 207.996H168.716V212.478H162.902V215.448H161.426V211.326H167.258V209.22H161.39V207.996ZM176.922 213.918H191.646V215.124H176.922V213.918ZM178.884 211.398H189.882V212.604H178.884V211.398ZM178.884 207.654H189.72V208.86H180.36V212.352H178.884V207.654ZM178.704 216.546H189.738V220.362H180.198V222.414H178.74V219.246H188.28V217.716H178.704V216.546ZM178.74 222.018H190.224V223.206H178.74V222.018ZM199.727 213.45H202.787V214.674H199.727V213.45ZM205.523 207.114H206.963V223.404H205.523V207.114ZM202.283 207.456H203.705V222.576H202.283V207.456ZM196.775 208.482C197.483 208.482 198.095 208.71 198.611 209.166C199.139 209.622 199.547 210.276 199.835 211.128C200.123 211.98 200.267 212.982 200.267 214.134C200.267 215.298 200.123 216.306 199.835 217.158C199.547 218.01 199.139 218.67 198.611 219.138C198.095 219.594 197.483 219.822 196.775 219.822C196.091 219.822 195.485 219.594 194.957 219.138C194.441 218.67 194.039 218.01 193.751 217.158C193.463 216.306 193.319 215.298 193.319 214.134C193.319 212.982 193.463 211.98 193.751 211.128C194.039 210.276 194.441 209.622 194.957 209.166C195.485 208.71 196.091 208.482 196.775 208.482ZM196.775 209.868C196.355 209.868 195.989 210.042 195.677 210.39C195.365 210.738 195.125 211.23 194.957 211.866C194.789 212.502 194.705 213.258 194.705 214.134C194.705 215.01 194.789 215.772 194.957 216.42C195.125 217.056 195.365 217.548 195.677 217.896C195.989 218.244 196.355 218.418 196.775 218.418C197.207 218.418 197.579 218.244 197.891 217.896C198.215 217.548 198.461 217.056 198.629 216.42C198.797 215.772 198.881 215.01 198.881 214.134C198.881 213.258 198.797 212.502 198.629 211.866C198.461 211.23 198.215 210.738 197.891 210.39C197.579 210.042 197.207 209.868 196.775 209.868ZM221.721 207.114H223.161V223.404H221.721V207.114ZM214.647 213.774H218.751V214.98H214.647V213.774ZM218.337 207.546H219.741V222.576H218.337V207.546ZM214.845 209.184H216.285C216.285 210.6 216.081 211.962 215.673 213.27C215.277 214.566 214.629 215.778 213.729 216.906C212.829 218.022 211.647 219.018 210.183 219.894L209.319 218.814C210.591 218.046 211.635 217.182 212.451 216.222C213.267 215.25 213.867 214.2 214.251 213.072C214.647 211.932 214.845 210.726 214.845 209.454V209.184ZM210.021 209.184H215.403V210.408H210.021V209.184ZM234.236 209.922H235.442V210.606C235.442 211.554 235.256 212.442 234.884 213.27C234.512 214.086 233.99 214.8 233.318 215.412C232.646 216.024 231.86 216.492 230.96 216.816L230.222 215.628C231.026 215.364 231.728 214.98 232.328 214.476C232.928 213.96 233.396 213.372 233.732 212.712C234.068 212.052 234.236 211.35 234.236 210.606V209.922ZM234.488 209.922H235.712V210.606C235.712 211.266 235.874 211.902 236.198 212.514C236.534 213.126 236.996 213.666 237.584 214.134C238.184 214.602 238.88 214.962 239.672 215.214L238.97 216.384C238.07 216.084 237.284 215.652 236.612 215.088C235.94 214.512 235.418 213.84 235.046 213.072C234.674 212.304 234.488 211.482 234.488 210.606V209.922ZM230.618 209.04H239.312V210.246H230.618V209.04ZM234.236 207.06H235.73V209.544H234.236V207.06ZM238.826 211.722H242.498V212.964H238.826V211.722ZM242.066 207.114H243.56V218.4H242.066V207.114ZM237.566 217.302H238.844V217.644C238.844 218.376 238.676 219.06 238.34 219.696C238.016 220.32 237.566 220.878 236.99 221.37C236.426 221.862 235.772 222.276 235.028 222.612C234.284 222.948 233.498 223.188 232.67 223.332L232.112 222.144C232.82 222.024 233.498 221.826 234.146 221.55C234.806 221.274 235.388 220.938 235.892 220.542C236.408 220.146 236.816 219.702 237.116 219.21C237.416 218.718 237.566 218.196 237.566 217.644V217.302ZM237.818 217.302H239.096V217.644C239.096 218.208 239.24 218.742 239.528 219.246C239.816 219.738 240.212 220.182 240.716 220.578C241.232 220.962 241.82 221.292 242.48 221.568C243.14 221.832 243.83 222.024 244.55 222.144L243.956 223.332C243.14 223.188 242.36 222.948 241.616 222.612C240.872 222.288 240.212 221.886 239.636 221.406C239.072 220.914 238.628 220.356 238.304 219.732C237.98 219.096 237.818 218.4 237.818 217.644V217.302ZM258.702 211.704H263.364V212.928H258.702V211.704ZM262.914 207.132H264.408V219.174H262.914V207.132ZM253.95 221.82H264.786V223.044H253.95V221.82ZM253.95 218.004H255.444V222.432H253.95V218.004ZM251.808 208.212H253.302V211.074H257.694V208.212H259.17V216.402H251.808V208.212ZM253.302 212.244V215.196H257.694V212.244H253.302ZM279.833 207.114H281.255V223.404H279.833V207.114ZM277.565 213.756H280.355V214.98H277.565V213.756ZM276.683 207.456H278.087V222.576H276.683V207.456ZM269.123 209.832H270.167V211.992C270.167 212.604 270.131 213.264 270.059 213.972C269.999 214.668 269.879 215.364 269.699 216.06C269.531 216.756 269.285 217.404 268.961 218.004C268.649 218.592 268.247 219.09 267.755 219.498L266.891 218.472C267.359 218.1 267.737 217.65 268.025 217.122C268.325 216.594 268.553 216.03 268.709 215.43C268.865 214.83 268.973 214.236 269.033 213.648C269.093 213.048 269.123 212.496 269.123 211.992V209.832ZM269.411 209.832H270.437V211.992C270.437 212.4 270.455 212.892 270.491 213.468C270.527 214.032 270.605 214.626 270.725 215.25C270.845 215.874 271.043 216.48 271.319 217.068C271.595 217.656 271.961 218.166 272.417 218.598L271.661 219.66C271.241 219.3 270.893 218.874 270.617 218.382C270.353 217.878 270.137 217.344 269.969 216.78C269.813 216.204 269.693 215.628 269.609 215.052C269.525 214.464 269.471 213.912 269.447 213.396C269.423 212.868 269.411 212.4 269.411 211.992V209.832ZM272.885 209.832H273.911V211.992C273.911 212.568 273.887 213.21 273.839 213.918C273.803 214.626 273.713 215.34 273.569 216.06C273.425 216.78 273.197 217.452 272.885 218.076C272.585 218.7 272.177 219.228 271.661 219.66L270.905 218.598C271.373 218.19 271.739 217.71 272.003 217.158C272.267 216.594 272.459 216.006 272.579 215.394C272.711 214.782 272.795 214.182 272.831 213.594C272.867 213.006 272.885 212.472 272.885 211.992V209.832ZM273.155 209.832H274.199V211.992C274.199 212.52 274.229 213.084 274.289 213.684C274.349 214.272 274.457 214.866 274.613 215.466C274.781 216.054 275.009 216.612 275.297 217.14C275.585 217.656 275.963 218.1 276.431 218.472L275.585 219.498C275.081 219.102 274.667 218.61 274.343 218.022C274.031 217.434 273.785 216.798 273.605 216.114C273.437 215.418 273.317 214.716 273.245 214.008C273.185 213.3 273.155 212.628 273.155 211.992V209.832ZM267.449 209.094H271.427V210.3H267.449V209.094ZM271.913 209.094H275.765V210.3H271.913V209.094ZM283.413 220.146H298.173V221.388H283.413V220.146ZM290.019 216.672H291.495V220.668H290.019V216.672ZM285.213 208.32H296.337V213.252H286.725V216.51H285.249V212.064H294.861V209.544H285.213V208.32ZM285.249 215.88H296.715V217.104H285.249V215.88ZM304.262 220.038H319.022V221.298H304.262V220.038ZM310.832 216.096H312.308V220.452H310.832V216.096ZM310.778 208.194H312.092V209.454C312.092 210.162 311.966 210.828 311.714 211.452C311.474 212.064 311.138 212.64 310.706 213.18C310.274 213.708 309.776 214.182 309.212 214.602C308.66 215.022 308.066 215.376 307.43 215.664C306.794 215.952 306.146 216.162 305.486 216.294L304.838 215.052C305.414 214.956 305.984 214.788 306.548 214.548C307.124 214.296 307.664 213.996 308.168 213.648C308.672 213.288 309.122 212.892 309.518 212.46C309.914 212.016 310.22 211.542 310.436 211.038C310.664 210.522 310.778 209.994 310.778 209.454V208.194ZM311.048 208.194H312.344V209.454C312.344 210.006 312.458 210.534 312.686 211.038C312.914 211.542 313.226 212.016 313.622 212.46C314.018 212.892 314.468 213.288 314.972 213.648C315.488 214.008 316.028 214.308 316.592 214.548C317.168 214.788 317.744 214.956 318.32 215.052L317.672 216.294C317.012 216.162 316.364 215.952 315.728 215.664C315.092 215.376 314.492 215.022 313.928 214.602C313.364 214.182 312.866 213.708 312.434 213.18C312.002 212.64 311.66 212.058 311.408 211.434C311.168 210.81 311.048 210.15 311.048 209.454V208.194ZM332.808 207.114H334.248V223.404H332.808V207.114ZM330.18 213.666H333.312V214.89H330.18V213.666ZM325.986 209.22H327.408C327.408 210.264 327.306 211.284 327.102 212.28C326.898 213.276 326.562 214.236 326.094 215.16C325.638 216.072 325.02 216.93 324.24 217.734C323.46 218.526 322.488 219.252 321.324 219.912L320.46 218.85C321.828 218.082 322.914 217.212 323.718 216.24C324.522 215.268 325.098 214.218 325.446 213.09C325.806 211.95 325.986 210.75 325.986 209.49V209.22ZM321.09 209.22H326.472V210.444H321.09V209.22ZM329.208 207.546H330.612V222.594H329.208V207.546ZM336.623 209.904H344.705V211.128H336.623V209.904ZM340.673 212.208C341.357 212.208 341.957 212.364 342.473 212.676C343.001 212.988 343.415 213.426 343.715 213.99C344.015 214.542 344.165 215.184 344.165 215.916C344.165 216.648 344.015 217.296 343.715 217.86C343.415 218.412 343.001 218.85 342.473 219.174C341.957 219.486 341.357 219.642 340.673 219.642C340.001 219.642 339.401 219.486 338.873 219.174C338.345 218.85 337.931 218.412 337.631 217.86C337.331 217.296 337.181 216.648 337.181 215.916C337.181 215.184 337.331 214.542 337.631 213.99C337.931 213.438 338.345 213.006 338.873 212.694C339.401 212.37 340.001 212.208 340.673 212.208ZM340.673 213.468C340.265 213.468 339.893 213.576 339.557 213.792C339.233 213.996 338.975 214.284 338.783 214.656C338.603 215.016 338.513 215.436 338.513 215.916C338.513 216.396 338.603 216.822 338.783 217.194C338.975 217.566 339.233 217.854 339.557 218.058C339.893 218.262 340.265 218.364 340.673 218.364C341.093 218.364 341.465 218.262 341.789 218.058C342.113 217.854 342.365 217.566 342.545 217.194C342.737 216.822 342.833 216.396 342.833 215.916C342.833 215.436 342.737 215.016 342.545 214.656C342.365 214.284 342.113 213.996 341.789 213.792C341.465 213.576 341.093 213.468 340.673 213.468ZM349.007 207.114H350.429V223.404H349.007V207.114ZM346.397 213.972H349.475V215.196H346.397V213.972ZM345.515 207.492H346.919V222.612H345.515V207.492ZM339.935 207.6H341.411V210.642H339.935V207.6ZM352.857 220.092H367.617V221.334H352.857V220.092ZM359.463 216.186H360.939V220.452H359.463V216.186ZM354.585 208.266H356.079V211.164H364.359V208.266H365.835V216.6H354.585V208.266ZM356.079 212.388V215.376H364.359V212.388H356.079ZM375.464 212.946H378.596V214.188H375.464V212.946ZM372.44 208.644H373.61V211.758C373.61 212.598 373.52 213.426 373.34 214.242C373.172 215.058 372.92 215.826 372.584 216.546C372.26 217.266 371.864 217.914 371.396 218.49C370.928 219.066 370.4 219.534 369.812 219.894L368.876 218.778C369.428 218.442 369.926 218.022 370.37 217.518C370.814 217.014 371.186 216.45 371.486 215.826C371.798 215.19 372.032 214.53 372.188 213.846C372.356 213.15 372.44 212.454 372.44 211.758V208.644ZM372.728 208.644H373.88V211.704C373.88 212.352 373.952 213.006 374.096 213.666C374.252 214.314 374.468 214.938 374.744 215.538C375.032 216.126 375.386 216.666 375.806 217.158C376.226 217.65 376.7 218.058 377.228 218.382L376.382 219.534C375.794 219.174 375.272 218.718 374.816 218.166C374.36 217.602 373.976 216.972 373.664 216.276C373.352 215.568 373.118 214.824 372.962 214.044C372.806 213.264 372.728 212.484 372.728 211.704V208.644ZM381.458 207.114H382.898V223.404H381.458V207.114ZM378.146 207.456H379.55V222.576H378.146V207.456ZM388.873 215.502H390.349V220.362H388.873V215.502ZM394.885 215.502H396.379V220.362H394.885V215.502ZM385.255 220.074H400.015V221.316H385.255V220.074ZM392.599 208.14C393.751 208.14 394.771 208.314 395.659 208.662C396.547 209.01 397.243 209.496 397.747 210.12C398.263 210.744 398.521 211.482 398.521 212.334C398.521 213.174 398.263 213.912 397.747 214.548C397.243 215.172 396.547 215.658 395.659 216.006C394.771 216.342 393.751 216.51 392.599 216.51C391.459 216.51 390.439 216.342 389.539 216.006C388.651 215.658 387.955 215.172 387.451 214.548C386.947 213.912 386.695 213.174 386.695 212.334C386.695 211.482 386.947 210.744 387.451 210.12C387.955 209.496 388.651 209.01 389.539 208.662C390.439 208.314 391.459 208.14 392.599 208.14ZM392.599 209.328C391.735 209.328 390.967 209.454 390.295 209.706C389.623 209.958 389.095 210.312 388.711 210.768C388.327 211.212 388.135 211.734 388.135 212.334C388.135 212.934 388.327 213.462 388.711 213.918C389.095 214.362 389.623 214.71 390.295 214.962C390.967 215.214 391.735 215.34 392.599 215.34C393.475 215.34 394.249 215.214 394.921 214.962C395.593 214.71 396.121 214.362 396.505 213.918C396.889 213.462 397.081 212.934 397.081 212.334C397.081 211.734 396.889 211.212 396.505 210.768C396.121 210.312 395.593 209.958 394.921 209.706C394.249 209.454 393.475 209.328 392.599 209.328Z" fill="#BABABA"/>
</svg>
