<svg width="140" height="140" viewBox="0 0 140 140" fill="none" xmlns="http://www.w3.org/2000/svg">
<path d="M4 0.5H136C137.933 0.5 139.5 2.067 139.5 4V136C139.5 137.933 137.933 139.5 136 139.5H4C2.067 139.5 0.5 137.933 0.5 136V4C0.5 2.067 2.067 0.5 4 0.5Z" fill="white" stroke="#D1D1D1"/>
<path d="M70.0003 77.3333C71.667 77.3333 73.0837 76.75 74.2503 75.5833C75.417 74.4167 76.0003 73 76.0003 71.3333C76.0003 69.6667 75.417 68.25 74.2503 67.0833C73.0837 65.9167 71.667 65.3333 70.0003 65.3333C68.3337 65.3333 66.917 65.9167 65.7503 67.0833C64.5837 68.25 64.0003 69.6667 64.0003 71.3333C64.0003 73 64.5837 74.4167 65.7503 75.5833C66.917 76.75 68.3337 77.3333 70.0003 77.3333ZM70.0003 74.6667C69.067 74.6667 68.2781 74.3444 67.6337 73.7C66.9892 73.0556 66.667 72.2667 66.667 71.3333C66.667 70.4 66.9892 69.6111 67.6337 68.9667C68.2781 68.3222 69.067 68 70.0003 68C70.9337 68 71.7225 68.3222 72.367 68.9667C73.0114 69.6111 73.3337 70.4 73.3337 71.3333C73.3337 72.2667 73.0114 73.0556 72.367 73.7C71.7225 74.3444 70.9337 74.6667 70.0003 74.6667ZM59.3337 82C58.6003 82 57.9725 81.7389 57.4503 81.2167C56.9281 80.6944 56.667 80.0667 56.667 79.3333V63.3333C56.667 62.6 56.9281 61.9722 57.4503 61.45C57.9725 60.9278 58.6003 60.6667 59.3337 60.6667H63.5337L65.2003 58.8667C65.4448 58.6 65.7392 58.3889 66.0837 58.2333C66.4281 58.0778 66.7892 58 67.167 58H72.8337C73.2114 58 73.5725 58.0778 73.917 58.2333C74.2614 58.3889 74.5559 58.6 74.8003 58.8667L76.467 60.6667H80.667C81.4003 60.6667 82.0281 60.9278 82.5503 61.45C83.0725 61.9722 83.3337 62.6 83.3337 63.3333V79.3333C83.3337 80.0667 83.0725 80.6944 82.5503 81.2167C82.0281 81.7389 81.4003 82 80.667 82H59.3337Z" fill="#BABABA"/>
</svg>
